<?xml version="1.0" encoding="UTF-8"?>
<svg xmlns="http://www.w3.org/2000/svg" version="1.1" viewBox="0 0 116.43 93.27">
  <defs>
    <style>
      .cls-1 {
        fill: #fff;
      }
    </style>
  </defs>
  <!-- Generator: Adobe Illustrator 28.7.2, SVG Export Plug-In . SVG Version: 1.2.0 Build 154)  -->
  <g>
    <g id="Calque_1">
      <g>
        <g>
          <path class="cls-1" d="M3.75,34.19c-1.52,0-2.7-.35-3.62-.96l.57-1.18c.91.57,2.01.92,3.05.92,1.53,0,4.28-.61,4.28-5.32,0-4.32-2.31-8.24-4.06-10.99C1.13,12.17,0,9.55,0,6.06,0,2.05,2.49,0,5.84,0c1.92,0,3.32.92,3.32.92v3.53h-1.09l-.61-3.01c-.48-.26-.96-.35-1.65-.35-1.48,0-3.14,1.13-3.14,4.36s1.79,5.89,3.53,8.72c2.53,4.1,4.58,8.02,4.58,12.64,0,6.11-4.45,7.37-7.02,7.37Z"/>
          <path class="cls-1" d="M25.38,1.4l-4.19,17.8v13.69h1.44v1.09h-5.58v-1.09h1.44v-13.08L14.31,1.4h-1.18V.31h3.71l3.58,15.87L24.15.31h2.4v1.09h-1.17Z"/>
          <path class="cls-1" d="M30.13,33.98v-1.09h1.31V1.4h-1.31V.31h5.54v1.09h-1.53v31.49h4.36l.78-5.23h1.09v6.33h-10.25Z"/>
          <path class="cls-1" d="M43.96,33.98v-1.09h1.31V1.4h-1.31V.31h5.54v1.09h-1.53v31.49h4.36l.78-5.23h1.09v6.33h-10.25Z"/>
          <path class="cls-1" d="M65.94,25.51h-4.89l2.4-15.48,2.49,15.48ZM71.04,33.98v-1.09h-1.18L64.67.18h-1.09l-5.15,32.71h-1.18v1.09h2.49l1.14-7.37h5.23l1.13,7.37h3.79Z"/>
          <path class="cls-1" d="M82.73,7.41c0,3.84-1.87,5.85-4.1,5.97V1.44c2.23.13,4.1,2.14,4.1,5.98ZM86.52,22.94c0-5.71-2.57-8.85-3.53-9.9.87-.61,2.45-2.23,2.45-5.63,0-6.1-4.8-7.11-7.33-7.11h-3.49v1.09h1.31v31.49h-1.31v1.09h3.36c4.01,0,8.54-2.31,8.54-11.03ZM83.64,22.94c0,7.67-3.23,9.9-5.02,9.9V14.52c.57,0,2.18-.26,3.09-.74.79,1,1.92,4.14,1.92,9.16Z"/>
          <path class="cls-1" d="M100.87,1.4l-4.41,32.71h-1.39L90.66,1.4h-1.31V.31h3.88l3.14,23.46L99.51.31h2.66v1.09h-1.31Z"/>
          <path class="cls-1" d="M109.41,34.19c-1.53,0-2.7-.35-3.62-.96l.57-1.18c.92.57,2.01.92,3.05.92,1.53,0,4.28-.61,4.28-5.32,0-4.32-2.31-8.24-4.06-10.99-2.83-4.49-3.97-7.11-3.97-10.6,0-4.01,2.49-6.06,5.85-6.06,1.92,0,3.31.92,3.31.92v3.53h-1.09l-.61-3.01c-.48-.26-.96-.35-1.66-.35-1.48,0-3.14,1.13-3.14,4.36s1.79,5.89,3.53,8.72c2.54,4.1,4.58,8.02,4.58,12.64,0,6.11-4.45,7.37-7.02,7.37Z"/>
        </g>
        <g>
          <path class="cls-1" d="M.41,55.73v-.41h.5v-12h-.5v-.41h2.03v.41h-.5v12h.5v.41H.41Z"/>
          <path class="cls-1" d="M12.28,43.32v12.47h-.5l-3.02-9.66v9.19h.5v.41h-1.55v-.41h.5v-12h-.5v-.41h1.12l2.91,9.31v-8.89h-.5v-.41h1.54v.41h-.5Z"/>
          <path class="cls-1" d="M21.55,45.31l-.25-1.99h-.93v12h.55v.41h-2.13v-.41h.55v-12h-.93l-.27,1.99h-.42v-2.41h4.24v2.41h-.42Z"/>
          <path class="cls-1" d="M26.98,55.73v-.41h.5v-4.49h-.5v-.42h.5v-7.1h-.5v-.41h3.57v1.58h-.42l-.22-1.17h-1.41v7.1h1.53v.42h-1.53v4.49h1.58l.22-1.17h.42v1.58h-3.74Z"/>
          <path class="cls-1" d="M38.85,55.73s.02-1.25-.46-2.54c-.42-1.11-1.13-2.01-1.13-2.01v4.55h-1.53v-.41h.5v-12h-.5v-.41h1.28c1.35,0,2.94.66,2.94,3.76,0,2.36-1.16,3.62-1.81,4.1,0,0,.6.76,1.1,1.96.58,1.39.56,2.59.56,2.59h.45v.41h-1.4ZM37.26,43.34v7.42c.33-.12,1.6-1.43,1.6-4.09s-.88-3.33-1.6-3.33Z"/>
          <path class="cls-1" d="M49.88,43.32v12.47h-.5l-3.03-9.66v9.19h.5v.41h-1.55v-.41h.5v-12h-.5v-.41h1.12l2.91,9.31v-8.89h-.5v-.41h1.54v.41h-.5Z"/>
          <path class="cls-1" d="M58.88,55.73l-.43-2.81h-1.99l-.43,2.81h-.95v-.41h.45l1.96-12.47h.42l1.98,12.47h.45v.41h-1.45ZM57.44,46.61l-.91,5.9h1.86l-.95-5.9Z"/>
          <path class="cls-1" d="M68.32,45.31l-.25-1.99h-.93v12h.55v.41h-2.13v-.41h.55v-12h-.93l-.26,1.99h-.42v-2.41h4.24v2.41h-.42Z"/>
          <path class="cls-1" d="M73.81,55.73v-.41h.5v-12h-.5v-.41h2.03v.41h-.5v12h.5v.41h-2.03Z"/>
          <path class="cls-1" d="M83.67,55.85c-.93,0-2.26-.67-2.26-6.53s1.33-6.53,2.26-6.53,2.26.66,2.26,6.53-1.33,6.53-2.26,6.53ZM83.67,43.22c-.6,0-1.16.73-1.16,6.1s.57,6.1,1.16,6.1,1.16-.73,1.16-6.1-.56-6.1-1.16-6.1Z"/>
          <path class="cls-1" d="M95.94,43.32v12.47h-.5l-3.02-9.66v9.19h.5v.41h-1.55v-.41h.5v-12h-.5v-.41h1.11l2.91,9.31v-8.89h-.5v-.41h1.54v.41h-.5Z"/>
          <path class="cls-1" d="M104.94,55.73l-.43-2.81h-2l-.43,2.81h-.95v-.41h.45l1.96-12.47h.42l1.98,12.47h.45v.41h-1.44ZM103.49,46.61l-.92,5.9h1.86l-.95-5.9Z"/>
          <path class="cls-1" d="M111.33,55.73v-.41h.5v-12h-.5v-.41h2.11v.41h-.58v12h1.66l.3-1.99h.41v2.41h-3.91Z"/>
          <path class="cls-1" d="M.28,74.45v-.42h.5v-4.49H.28v-.42h.5v-7.1H.28v-.42h3.57v1.58h-.41l-.22-1.16h-1.41v7.1h1.53v.42h-1.53v4.49h1.58l.22-1.16h.41v1.58H.28Z"/>
          <path class="cls-1" d="M14.84,74.45h-1.25v-.42h.5v-12h-.5v-.42h1.25c1.15,0,3.18.6,3.18,6.42s-2.03,6.42-3.18,6.42ZM15.13,62.04v11.97c.52,0,1.8-.83,1.8-5.98s-1.28-5.99-1.8-5.99Z"/>
          <path class="cls-1" d="M32.41,62.03v9.82c0,2.04-.95,2.71-1.94,2.71s-1.93-.67-1.93-2.71v-9.82h-.5v-.42h1.53v10.89c0,1.24.53,1.65.9,1.65s.91-.4.91-1.65v-10.89h1.53v.42h-.5Z"/>
          <path class="cls-1" d="M45.76,74.53c-1.03,0-2.84-.58-2.84-6.55s1.81-6.45,2.84-6.45c.48,0,.78.12.78.12v1.54h-.41l-.22-1.23s-.11-.02-.15-.02c-.63,0-1.74,1.36-1.74,6.03,0,5.02,1.13,6.09,2.08,6.09.17,0,.3-.02.45-.05v.42s-.3.1-.78.1Z"/>
          <path class="cls-1" d="M59.86,74.45l-.43-2.81h-1.99l-.43,2.81h-.95v-.42h.45l1.96-12.46h.42l1.98,12.46h.45v.42h-1.45ZM58.42,65.32l-.91,5.9h1.86l-.95-5.9Z"/>
          <path class="cls-1" d="M73.87,64.02l-.25-1.99h-.93v12h.55v.42h-2.13v-.42h.55v-12h-.93l-.26,1.99h-.42v-2.41h4.24v2.41h-.42Z"/>
          <path class="cls-1" d="M83.93,74.45v-.42h.5v-12h-.5v-.42h2.03v.42h-.5v12h.5v.42h-2.03Z"/>
          <path class="cls-1" d="M98.37,74.56c-.93,0-2.26-.67-2.26-6.53s1.33-6.53,2.26-6.53,2.26.66,2.26,6.53-1.33,6.53-2.26,6.53ZM98.37,61.93c-.6,0-1.17.73-1.17,6.1s.57,6.1,1.17,6.1,1.16-.73,1.16-6.1-.57-6.1-1.16-6.1Z"/>
          <path class="cls-1" d="M115.21,62.03v12.46h-.5l-3.02-9.66v9.19h.5v.42h-1.55v-.42h.5v-12h-.5v-.42h1.12l2.91,9.31v-8.89h-.5v-.42h1.54v.42h-.5Z"/>
          <path class="cls-1" d="M3.42,93.24c-1.03,0-2.84-.58-2.84-6.55s1.81-6.45,2.84-6.45c.48,0,.78.12.78.12v1.54h-.41l-.22-1.23s-.12-.02-.15-.02c-.63,0-1.75,1.36-1.75,6.04,0,5.02,1.13,6.08,2.08,6.08.17,0,.3-.02.45-.05v.41s-.3.1-.78.1Z"/>
          <path class="cls-1" d="M14.39,93.27c-.93,0-2.26-.67-2.26-6.53s1.33-6.54,2.26-6.54,2.26.67,2.26,6.54-1.33,6.53-2.26,6.53ZM14.39,80.64c-.6,0-1.16.73-1.16,6.1s.56,6.1,1.16,6.1,1.16-.73,1.16-6.1-.56-6.1-1.16-6.1Z"/>
          <path class="cls-1" d="M29.66,80.74v12.46h-.5l-3.03-9.66v9.19h.5v.42h-1.55v-.42h.5v-12h-.5v-.42h1.12l2.91,9.31v-8.89h-.5v-.42h1.54v.42h-.5Z"/>
          <path class="cls-1" d="M39.69,93.24c-.58,0-1.03-.13-1.38-.36l.22-.45c.35.21.76.35,1.16.35.58,0,1.63-.24,1.63-2.03,0-1.64-.88-3.14-1.54-4.19-1.08-1.72-1.51-2.71-1.51-4.04,0-1.53.95-2.31,2.23-2.31.73,0,1.26.35,1.26.35v1.35h-.42l-.23-1.14c-.18-.1-.37-.13-.63-.13-.57,0-1.2.43-1.2,1.66s.68,2.24,1.35,3.33c.96,1.56,1.74,3.05,1.74,4.82,0,2.33-1.69,2.81-2.67,2.81Z"/>
          <path class="cls-1" d="M54.66,80.74v9.82c0,2.05-.95,2.71-1.94,2.71s-1.93-.67-1.93-2.71v-9.82h-.5v-.42h1.53v10.89c0,1.25.53,1.65.9,1.65s.91-.4.91-1.65v-10.89h1.53v.42h-.5Z"/>
          <path class="cls-1" d="M63.29,93.15v-.42h.5v-12h-.5v-.42h2.11v.42h-.58v12h1.66l.3-1.99h.41v2.41h-3.91Z"/>
          <path class="cls-1" d="M78.34,82.73l-.25-1.99h-.93v12h.55v.42h-2.13v-.42h.55v-12h-.93l-.27,1.99h-.42v-2.41h4.24v2.41h-.42Z"/>
          <path class="cls-1" d="M86.83,93.15v-.42h.5v-12h-.5v-.42h2.03v.42h-.5v12h.5v.42h-2.03Z"/>
          <path class="cls-1" d="M101.69,80.74v12.46h-.5l-3.02-9.66v9.19h.5v.42h-1.55v-.42h.5v-12h-.5v-.42h1.12l2.91,9.31v-8.89h-.5v-.42h1.55v.42h-.5Z"/>
          <path class="cls-1" d="M113.74,93.24c-1.25,0-3.11-.58-3.11-6.55s1.81-6.45,2.84-6.45c.42,0,.78.12.78.12v1.54h-.41l-.22-1.23s-.1-.02-.15-.02c-.65,0-1.75,1.42-1.75,6.04s1.08,6.13,2.08,6.13c.04,0,.07-.02.08-.02v-3.99c0-1.63-.22-1.86-.97-1.86-.05,0-.1,0-.21.01v-.41s.2-.02.4-.02c1.11,0,1.8.6,1.8,2.68v3.64s-.52.38-1.16.38Z"/>
        </g>
      </g>
    </g>
  </g>
</svg>